<?xml version="1.0" encoding="UTF-8"?>
<svg id="Layer_1" data-name="Layer 1" xmlns="http://www.w3.org/2000/svg" viewBox="0 0 1920 272.05">
  <defs>
    <style>
      .cls-1 {
        fill: #c1272d;
      }

      .cls-2 {
        fill: #f2f2f2;
      }
    </style>
  </defs>
  <path class="cls-2" d="m82.45,207.95h-14.92L9.54,36.7h14.68l51.38,152.17,53.09-152.17h13.21l52.6,152.66,51.86-152.66h13.7l-57.98,171.25h-14.92l-52.11-151.19-52.6,151.19Z"/>
  <path class="cls-2" d="m294.07,34.01h115.23v12.48h-115.23v-12.48Zm0,80.73h115.23v12.48h-115.23v-12.48Zm0,93.21h115.23v-12.48h-115.23v12.48Z"/>
  <path class="cls-2" d="m456.51,36.7h71.93c37.19,0,59.45,15.66,59.45,43.79,0,20.06-11.25,33.27-27.89,39.14,23.49,4.65,36.94,19.33,36.94,42.81,0,29.11-21.04,45.5-63.61,45.5h-76.82v-11.99h76.82c32.05,0,49.42-10.52,49.42-34.5s-17.37-34.49-49.42-34.49h-76.82v-11.74h71.44c28.87,0,45.75-11.25,45.75-33.27s-16.88-33.27-45.75-33.27h-71.44v-11.99Z"/>
  <path class="cls-1" d="m653.21,207.95h-13.94V36.7h11.74l114.74,145.81V36.7h13.94v171.25h-11.74l-114.74-145.81v145.81Z"/>
  <path class="cls-1" d="m837.19,34.01h115.23v12.48h-115.23v-12.48Zm0,80.73h115.23v12.48h-115.23v-12.48Zm0,93.21h115.23v-12.48h-115.23v12.48Z"/>
  <path class="cls-1" d="m1032.41,207.95V49.18h-61.16v-12.48h136.51v12.48h-61.16v158.77h-14.19Z"/>
  <path class="cls-1" d="m1188.99,207.95h-14.92l-57.98-171.25h14.68l51.38,152.17,53.09-152.17h13.21l52.6,152.66,51.86-152.66h13.7l-57.98,171.25h-14.92l-52.11-151.19-52.6,151.19Z"/>
  <path class="cls-1" d="m1383,122.33c0-49.91,38.16-86.85,89.29-86.85s89.29,36.94,89.29,86.85-38.16,86.85-89.29,86.85-89.29-36.94-89.29-86.85Zm164.4,0c0-42.57-32.05-74.13-75.11-74.13s-75.11,31.56-75.11,74.13,32.05,74.13,75.11,74.13,75.11-31.56,75.11-74.13Z"/>
  <path class="cls-1" d="m1737,207.95h-15.9l-40.37-56.51c-4.89.49-10.03.98-15.66.98h-48.2v55.53h-13.94v-67.77h62.14c35.72,0,55.04-16.88,55.04-45.5s-19.33-45.5-55.04-45.5h-62.14v-12.48h62.14c43.06,0,69.23,21.53,69.23,57.98,0,27.16-14.68,45.99-39.88,53.58l42.57,59.69Z"/>
  <path class="cls-1" d="m1919.27,207.95h-17.12l-72.66-83.18-37.43,38.16v45.01h-13.94V36.7h13.94v108.13l105.2-108.13h16.64l-74.86,77.8,80.24,93.45Z"/>
</svg>